<?xml version="1.0" standalone="no"?><!-- Generator: Gravit.io --><svg xmlns="http://www.w3.org/2000/svg" xmlns:xlink="http://www.w3.org/1999/xlink" style="isolation:isolate" viewBox="338 162 1311.796 992.783" width="1311.796" height="992.783"><path d=" M 338 162 L 338 1152 Q 496 1168 552 1092 C 608 1016 640 984 742 1006 C 844 1028 890 1004 910 948 C 930 892 1030 924 1090 948 C 1150 972 1170 974 1220 948 C 1270 922 1278 892 1332 930 C 1386 968 1410 966 1414 948 C 1418 930 1418 848 1516 818 C 1614 788 1634 768 1628 746 C 1622 724 1580 600 1610 536 C 1640 472 1664 442 1640 412 C 1616 382 1504 362 1516 276 Q 1528 190 1452 162 L 338 162 Z " fill="rgb(255,80,80)"/></svg>